<?xml version="1.0" encoding="us-ascii" standalone="no"?><svg xmlns="http://www.w3.org/2000/svg" xmlns:xlink="http://www.w3.org/1999/xlink" contentStyleType="text/css" height="550px" preserveAspectRatio="none" style="width:1360px;height:550px;background:#FFFFFF;" version="1.1" viewBox="0 0 1360 550" width="1360px" zoomAndPan="magnify"><defs/><g><text fill="#888888" font-family="sans-serif" font-size="10" lengthAdjust="spacing" textLength="127" x="1220.5" y="19.668">RomanToArabicOptimized</text><ellipse cx="666.5" cy="32.7773" fill="#222222" rx="10" ry="10" style="stroke:#222222;stroke-width:1.0;"/><rect fill="#F1F1F1" height="48.2656" rx="12.5" ry="12.5" style="stroke:#181818;stroke-width:0.5;" width="174" x="579.5" y="62.7773"/><text fill="#000000" font-family="sans-serif" font-size="12" lengthAdjust="spacing" textLength="58" x="589.5" y="84.3789">result = 0</text><text fill="#000000" font-family="sans-serif" font-size="12" lengthAdjust="spacing" textLength="154" x="589.5" y="98.5117">i = romanNumeral.length()</text><rect fill="#F1F1F1" height="34.1328" rx="12.5" ry="12.5" style="stroke:#181818;stroke-width:0.5;" width="217" x="558" y="175.043"/><text fill="#000000" font-family="sans-serif" font-size="12" lengthAdjust="spacing" textLength="197" x="568" y="196.6445">symbol = romanNumeral.charAt(i)</text><polygon fill="#F1F1F1" points="644.5,229.1758,688.5,229.1758,700.5,241.1758,688.5,253.1758,644.5,253.1758,632.5,241.1758,644.5,229.1758" style="stroke:#181818;stroke-width:0.5;"/><text fill="#000000" font-family="sans-serif" font-size="11" lengthAdjust="spacing" textLength="44" x="644.5" y="245.333">symbol?</text><polygon fill="#F1F1F1" points="108.75,289.0859,161.75,289.0859,173.75,301.0859,161.75,313.0859,108.75,313.0859,96.75,301.0859,108.75,289.0859" style="stroke:#181818;stroke-width:0.5;"/><text fill="#000000" font-family="sans-serif" font-size="11" lengthAdjust="spacing" textLength="53" x="108.75" y="305.2432">result &lt; 5</text><text fill="#000000" font-family="sans-serif" font-size="11" lengthAdjust="spacing" textLength="18" x="78.75" y="298.7656">yes</text><text fill="#000000" font-family="sans-serif" font-size="11" lengthAdjust="spacing" textLength="14" x="173.75" y="298.7656">no</text><rect fill="#F1F1F1" height="34.1328" rx="12.5" ry="12.5" style="stroke:#181818;stroke-width:0.5;" width="88" x="38" y="323.0859"/><text fill="#000000" font-family="sans-serif" font-size="12" lengthAdjust="spacing" textLength="68" x="48" y="344.6875">result += 1</text><rect fill="#F1F1F1" height="34.1328" rx="12.5" ry="12.5" style="stroke:#181818;stroke-width:0.5;" width="85" x="146" y="323.0859"/><text fill="#000000" font-family="sans-serif" font-size="12" lengthAdjust="spacing" textLength="65" x="156" y="344.6875">result -= 1</text><polygon fill="#F1F1F1" points="135.25,363.2188,147.25,375.2188,135.25,387.2188,123.25,375.2188,135.25,363.2188" style="stroke:#181818;stroke-width:0.5;"/><rect fill="#F1F1F1" height="34.1328" rx="12.5" ry="12.5" style="stroke:#181818;stroke-width:0.5;" width="88" x="241" y="289.0859"/><text fill="#000000" font-family="sans-serif" font-size="12" lengthAdjust="spacing" textLength="68" x="251" y="310.6875">result += 5</text><polygon fill="#F1F1F1" points="414.25,289.0859,474.25,289.0859,486.25,301.0859,474.25,313.0859,414.25,313.0859,402.25,301.0859,414.25,289.0859" style="stroke:#181818;stroke-width:0.5;"/><text fill="#000000" font-family="sans-serif" font-size="11" lengthAdjust="spacing" textLength="60" x="414.25" y="305.2432">result &lt; 50</text><rect fill="#F1F1F1" height="34.1328" rx="12.5" ry="12.5" style="stroke:#181818;stroke-width:0.5;" width="96" x="339" y="323.0859"/><text fill="#000000" font-family="sans-serif" font-size="12" lengthAdjust="spacing" textLength="76" x="349" y="344.6875">result += 10</text><rect fill="#F1F1F1" height="34.1328" rx="12.5" ry="12.5" style="stroke:#181818;stroke-width:0.5;" width="93" x="455" y="323.0859"/><text fill="#000000" font-family="sans-serif" font-size="12" lengthAdjust="spacing" textLength="73" x="465" y="344.6875">result -= 10</text><polygon fill="#F1F1F1" points="444.25,363.2188,456.25,375.2188,444.25,387.2188,432.25,375.2188,444.25,363.2188" style="stroke:#181818;stroke-width:0.5;"/><rect fill="#F1F1F1" height="34.1328" rx="12.5" ry="12.5" style="stroke:#181818;stroke-width:0.5;" width="96" x="560.5" y="289.0859"/><text fill="#000000" font-family="sans-serif" font-size="12" lengthAdjust="spacing" textLength="76" x="570.5" y="310.6875">result += 50</text><polygon fill="#F1F1F1" points="766.25,289.0859,833.25,289.0859,845.25,301.0859,833.25,313.0859,766.25,313.0859,754.25,301.0859,766.25,289.0859" style="stroke:#181818;stroke-width:0.5;"/><text fill="#000000" font-family="sans-serif" font-size="11" lengthAdjust="spacing" textLength="67" x="766.25" y="305.2432">result &lt; 500</text><rect fill="#F1F1F1" height="34.1328" rx="12.5" ry="12.5" style="stroke:#181818;stroke-width:0.5;" width="104" x="686.5" y="323.0859"/><text fill="#000000" font-family="sans-serif" font-size="12" lengthAdjust="spacing" textLength="84" x="696.5" y="344.6875">result += 100</text><rect fill="#F1F1F1" height="34.1328" rx="12.5" ry="12.5" style="stroke:#181818;stroke-width:0.5;" width="101" x="810.5" y="323.0859"/><text fill="#000000" font-family="sans-serif" font-size="12" lengthAdjust="spacing" textLength="81" x="820.5" y="344.6875">result -= 100</text><polygon fill="#F1F1F1" points="799.75,363.2188,811.75,375.2188,799.75,387.2188,787.75,375.2188,799.75,363.2188" style="stroke:#181818;stroke-width:0.5;"/><rect fill="#F1F1F1" height="34.1328" rx="12.5" ry="12.5" style="stroke:#181818;stroke-width:0.5;" width="104" x="921.5" y="289.0859"/><text fill="#000000" font-family="sans-serif" font-size="12" lengthAdjust="spacing" textLength="84" x="931.5" y="310.6875">result += 500</text><rect fill="#F1F1F1" height="34.1328" rx="12.5" ry="12.5" style="stroke:#181818;stroke-width:0.5;" width="112" x="1035.5" y="289.0859"/><text fill="#000000" font-family="sans-serif" font-size="12" lengthAdjust="spacing" textLength="92" x="1045.5" y="310.6875">result += 1000</text><rect fill="#FFC0CB" height="34.1328" rx="12.5" ry="12.5" style="stroke:#181818;stroke-width:0.5;" width="165" x="1157.5" y="289.0859"/><text fill="#000000" font-family="sans-serif" font-size="12" lengthAdjust="spacing" textLength="145" x="1167.5" y="310.6875">IllegalArgumentException</text><polygon fill="#F1F1F1" points="666.5,397.2188,666.5,397.2188,678.5,409.2188,666.5,421.2188,666.5,421.2188,654.5,409.2188,666.5,397.2188" style="stroke:#181818;stroke-width:0.5;"/><polygon fill="#F1F1F1" points="648,131.043,685,131.043,697,143.043,685,155.043,648,155.043,636,143.043,648,131.043" style="stroke:#181818;stroke-width:0.5;"/><text fill="#000000" font-family="sans-serif" font-size="11" lengthAdjust="spacing" textLength="37" x="648" y="147.2002">i-- &gt; 0</text><rect fill="#F1F1F1" height="34.1328" rx="12.5" ry="12.5" style="stroke:#181818;stroke-width:0.5;" width="91" x="621" y="463.2188"/><text fill="#000000" font-family="sans-serif" font-size="12" lengthAdjust="spacing" textLength="71" x="631" y="484.8203">return result</text><ellipse cx="666.5" cy="528.3516" fill="none" rx="11" ry="11" style="stroke:#222222;stroke-width:1.0;"/><ellipse cx="666.5" cy="528.3516" fill="#222222" rx="6" ry="6" style="stroke:#111111;stroke-width:1.0;"/><line style="stroke:#181818;stroke-width:1.0;" x1="666.5" x2="666.5" y1="42.7773" y2="62.7773"/><polygon fill="#181818" points="662.5,52.7773,666.5,62.7773,670.5,52.7773,666.5,56.7773" style="stroke:#181818;stroke-width:1.0;"/><line style="stroke:#181818;stroke-width:1.0;" x1="96.75" x2="82" y1="301.0859" y2="301.0859"/><line style="stroke:#181818;stroke-width:1.0;" x1="82" x2="82" y1="301.0859" y2="323.0859"/><polygon fill="#181818" points="78,313.0859,82,323.0859,86,313.0859,82,317.0859" style="stroke:#181818;stroke-width:1.0;"/><line style="stroke:#181818;stroke-width:1.0;" x1="173.75" x2="188.5" y1="301.0859" y2="301.0859"/><line style="stroke:#181818;stroke-width:1.0;" x1="188.5" x2="188.5" y1="301.0859" y2="323.0859"/><polygon fill="#181818" points="184.5,313.0859,188.5,323.0859,192.5,313.0859,188.5,317.0859" style="stroke:#181818;stroke-width:1.0;"/><line style="stroke:#181818;stroke-width:1.0;" x1="82" x2="82" y1="357.2188" y2="375.2188"/><line style="stroke:#181818;stroke-width:1.0;" x1="82" x2="123.25" y1="375.2188" y2="375.2188"/><polygon fill="#181818" points="113.25,371.2188,123.25,375.2188,113.25,379.2188,117.25,375.2188" style="stroke:#181818;stroke-width:1.0;"/><line style="stroke:#181818;stroke-width:1.0;" x1="188.5" x2="188.5" y1="357.2188" y2="375.2188"/><line style="stroke:#181818;stroke-width:1.0;" x1="188.5" x2="147.25" y1="375.2188" y2="375.2188"/><polygon fill="#181818" points="157.25,371.2188,147.25,375.2188,157.25,379.2188,153.25,375.2188" style="stroke:#181818;stroke-width:1.0;"/><line style="stroke:#181818;stroke-width:1.0;" x1="402.25" x2="387" y1="301.0859" y2="301.0859"/><line style="stroke:#181818;stroke-width:1.0;" x1="387" x2="387" y1="301.0859" y2="323.0859"/><polygon fill="#181818" points="383,313.0859,387,323.0859,391,313.0859,387,317.0859" style="stroke:#181818;stroke-width:1.0;"/><line style="stroke:#181818;stroke-width:1.0;" x1="486.25" x2="501.5" y1="301.0859" y2="301.0859"/><line style="stroke:#181818;stroke-width:1.0;" x1="501.5" x2="501.5" y1="301.0859" y2="323.0859"/><polygon fill="#181818" points="497.5,313.0859,501.5,323.0859,505.5,313.0859,501.5,317.0859" style="stroke:#181818;stroke-width:1.0;"/><line style="stroke:#181818;stroke-width:1.0;" x1="387" x2="387" y1="357.2188" y2="375.2188"/><line style="stroke:#181818;stroke-width:1.0;" x1="387" x2="432.25" y1="375.2188" y2="375.2188"/><polygon fill="#181818" points="422.25,371.2188,432.25,375.2188,422.25,379.2188,426.25,375.2188" style="stroke:#181818;stroke-width:1.0;"/><line style="stroke:#181818;stroke-width:1.0;" x1="501.5" x2="501.5" y1="357.2188" y2="375.2188"/><line style="stroke:#181818;stroke-width:1.0;" x1="501.5" x2="456.25" y1="375.2188" y2="375.2188"/><polygon fill="#181818" points="466.25,371.2188,456.25,375.2188,466.25,379.2188,462.25,375.2188" style="stroke:#181818;stroke-width:1.0;"/><line style="stroke:#181818;stroke-width:1.0;" x1="754.25" x2="738.5" y1="301.0859" y2="301.0859"/><line style="stroke:#181818;stroke-width:1.0;" x1="738.5" x2="738.5" y1="301.0859" y2="323.0859"/><polygon fill="#181818" points="734.5,313.0859,738.5,323.0859,742.5,313.0859,738.5,317.0859" style="stroke:#181818;stroke-width:1.0;"/><line style="stroke:#181818;stroke-width:1.0;" x1="845.25" x2="861" y1="301.0859" y2="301.0859"/><line style="stroke:#181818;stroke-width:1.0;" x1="861" x2="861" y1="301.0859" y2="323.0859"/><polygon fill="#181818" points="857,313.0859,861,323.0859,865,313.0859,861,317.0859" style="stroke:#181818;stroke-width:1.0;"/><line style="stroke:#181818;stroke-width:1.0;" x1="738.5" x2="738.5" y1="357.2188" y2="375.2188"/><line style="stroke:#181818;stroke-width:1.0;" x1="738.5" x2="787.75" y1="375.2188" y2="375.2188"/><polygon fill="#181818" points="777.75,371.2188,787.75,375.2188,777.75,379.2188,781.75,375.2188" style="stroke:#181818;stroke-width:1.0;"/><line style="stroke:#181818;stroke-width:1.0;" x1="861" x2="861" y1="357.2188" y2="375.2188"/><line style="stroke:#181818;stroke-width:1.0;" x1="861" x2="811.75" y1="375.2188" y2="375.2188"/><polygon fill="#181818" points="821.75,371.2188,811.75,375.2188,821.75,379.2188,817.75,375.2188" style="stroke:#181818;stroke-width:1.0;"/><line style="stroke:#181818;stroke-width:1.0;" x1="632.5" x2="135.25" y1="241.1758" y2="241.1758"/><line style="stroke:#181818;stroke-width:1.0;" x1="135.25" x2="135.25" y1="241.1758" y2="289.0859"/><polygon fill="#181818" points="131.25,279.0859,135.25,289.0859,139.25,279.0859,135.25,283.0859" style="stroke:#181818;stroke-width:1.0;"/><text fill="#000000" font-family="sans-serif" font-size="11" lengthAdjust="spacing" textLength="3" x="138.25" y="269.2881">I</text><line style="stroke:#181818;stroke-width:1.0;" x1="700.5" x2="1240" y1="241.1758" y2="241.1758"/><line style="stroke:#181818;stroke-width:1.0;" x1="1240" x2="1240" y1="241.1758" y2="289.0859"/><polygon fill="#181818" points="1236,279.0859,1240,289.0859,1244,279.0859,1240,283.0859" style="stroke:#181818;stroke-width:1.0;"/><text fill="#000000" font-family="sans-serif" font-size="11" lengthAdjust="spacing" textLength="5" x="1243" y="269.2881">*</text><line style="stroke:#181818;stroke-width:1.0;" x1="285" x2="285" y1="241.1758" y2="289.0859"/><polygon fill="#181818" points="281,279.0859,285,289.0859,289,279.0859,285,283.0859" style="stroke:#181818;stroke-width:1.0;"/><text fill="#000000" font-family="sans-serif" font-size="11" lengthAdjust="spacing" textLength="7" x="288" y="264.2881">V</text><line style="stroke:#181818;stroke-width:1.0;" x1="444.25" x2="444.25" y1="241.1758" y2="289.0859"/><polygon fill="#181818" points="440.25,279.0859,444.25,289.0859,448.25,279.0859,444.25,283.0859" style="stroke:#181818;stroke-width:1.0;"/><text fill="#000000" font-family="sans-serif" font-size="11" lengthAdjust="spacing" textLength="7" x="447.25" y="264.2881">X</text><line style="stroke:#181818;stroke-width:1.0;" x1="608.5" x2="608.5" y1="241.1758" y2="289.0859"/><polygon fill="#181818" points="604.5,279.0859,608.5,289.0859,612.5,279.0859,608.5,283.0859" style="stroke:#181818;stroke-width:1.0;"/><text fill="#000000" font-family="sans-serif" font-size="11" lengthAdjust="spacing" textLength="6" x="611.5" y="264.2881">L</text><line style="stroke:#181818;stroke-width:1.0;" x1="799.75" x2="799.75" y1="241.1758" y2="289.0859"/><polygon fill="#181818" points="795.75,279.0859,799.75,289.0859,803.75,279.0859,799.75,283.0859" style="stroke:#181818;stroke-width:1.0;"/><text fill="#000000" font-family="sans-serif" font-size="11" lengthAdjust="spacing" textLength="8" x="802.75" y="264.2881">C</text><line style="stroke:#181818;stroke-width:1.0;" x1="973.5" x2="973.5" y1="241.1758" y2="289.0859"/><polygon fill="#181818" points="969.5,279.0859,973.5,289.0859,977.5,279.0859,973.5,283.0859" style="stroke:#181818;stroke-width:1.0;"/><text fill="#000000" font-family="sans-serif" font-size="11" lengthAdjust="spacing" textLength="8" x="976.5" y="264.2881">D</text><line style="stroke:#181818;stroke-width:1.0;" x1="1091.5" x2="1091.5" y1="241.1758" y2="289.0859"/><polygon fill="#181818" points="1087.5,279.0859,1091.5,289.0859,1095.5,279.0859,1091.5,283.0859" style="stroke:#181818;stroke-width:1.0;"/><text fill="#000000" font-family="sans-serif" font-size="11" lengthAdjust="spacing" textLength="9" x="1094.5" y="264.2881">M</text><line style="stroke:#181818;stroke-width:1.0;" x1="135.25" x2="135.25" y1="387.2188" y2="409.2188"/><line style="stroke:#181818;stroke-width:1.0;" x1="135.25" x2="654.5" y1="409.2188" y2="409.2188"/><polygon fill="#181818" points="644.5,405.2188,654.5,409.2188,644.5,413.2188,648.5,409.2188" style="stroke:#181818;stroke-width:1.0;"/><line style="stroke:#181818;stroke-width:1.0;" x1="1091.5" x2="1091.5" y1="323.2188" y2="409.2188"/><line style="stroke:#181818;stroke-width:1.0;" x1="1091.5" x2="678.5" y1="409.2188" y2="409.2188"/><polygon fill="#181818" points="688.5,405.2188,678.5,409.2188,688.5,413.2188,684.5,409.2188" style="stroke:#181818;stroke-width:1.0;"/><line style="stroke:#181818;stroke-width:1.0;" x1="285" x2="285" y1="323.2188" y2="409.2188"/><polygon fill="#181818" points="281,399.2188,285,409.2188,289,399.2188,285,403.2188" style="stroke:#181818;stroke-width:1.0;"/><line style="stroke:#181818;stroke-width:1.0;" x1="444.25" x2="444.25" y1="387.2188" y2="409.2188"/><polygon fill="#181818" points="440.25,399.2188,444.25,409.2188,448.25,399.2188,444.25,403.2188" style="stroke:#181818;stroke-width:1.0;"/><line style="stroke:#181818;stroke-width:1.0;" x1="608.5" x2="608.5" y1="323.2188" y2="409.2188"/><polygon fill="#181818" points="604.5,399.2188,608.5,409.2188,612.5,399.2188,608.5,403.2188" style="stroke:#181818;stroke-width:1.0;"/><line style="stroke:#181818;stroke-width:1.0;" x1="799.75" x2="799.75" y1="387.2188" y2="409.2188"/><polygon fill="#181818" points="795.75,399.2188,799.75,409.2188,803.75,399.2188,799.75,403.2188" style="stroke:#181818;stroke-width:1.0;"/><line style="stroke:#181818;stroke-width:1.0;" x1="973.5" x2="973.5" y1="323.2188" y2="409.2188"/><polygon fill="#181818" points="969.5,399.2188,973.5,409.2188,977.5,399.2188,973.5,403.2188" style="stroke:#181818;stroke-width:1.0;"/><line style="stroke:#181818;stroke-width:1.0;" x1="666.5" x2="666.5" y1="209.1758" y2="229.1758"/><polygon fill="#181818" points="662.5,219.1758,666.5,229.1758,670.5,219.1758,666.5,223.1758" style="stroke:#181818;stroke-width:1.0;"/><line style="stroke:#181818;stroke-width:1.0;" x1="666.5" x2="666.5" y1="155.043" y2="175.043"/><polygon fill="#181818" points="662.5,165.043,666.5,175.043,670.5,165.043,666.5,169.043" style="stroke:#181818;stroke-width:1.0;"/><line style="stroke:#181818;stroke-width:1.0;" x1="666.5" x2="666.5" y1="421.2188" y2="431.2188"/><line style="stroke:#181818;stroke-width:1.0;" x1="666.5" x2="1334.5" y1="431.2188" y2="431.2188"/><polygon fill="#181818" points="1330.5,338.6309,1334.5,328.6309,1338.5,338.6309,1334.5,334.6309" style="stroke:#181818;stroke-width:1.0;"/><line style="stroke:#181818;stroke-width:1.0;" x1="1334.5" x2="1334.5" y1="143.043" y2="431.2188"/><line style="stroke:#181818;stroke-width:1.0;" x1="1334.5" x2="697" y1="143.043" y2="143.043"/><polygon fill="#181818" points="707,139.043,697,143.043,707,147.043,703,143.043" style="stroke:#181818;stroke-width:1.0;"/><line style="stroke:#181818;stroke-width:1.0;" x1="636" x2="24" y1="143.043" y2="143.043"/><polygon fill="#181818" points="20,324.6309,24,334.6309,28,324.6309,24,328.6309" style="stroke:#181818;stroke-width:1.0;"/><line style="stroke:#181818;stroke-width:1.0;" x1="24" x2="24" y1="143.043" y2="443.2188"/><line style="stroke:#181818;stroke-width:1.0;" x1="24" x2="666.5" y1="443.2188" y2="443.2188"/><line style="stroke:#181818;stroke-width:1.0;" x1="666.5" x2="666.5" y1="443.2188" y2="463.2188"/><polygon fill="#181818" points="662.5,453.2188,666.5,463.2188,670.5,453.2188,666.5,457.2188" style="stroke:#181818;stroke-width:1.0;"/><line style="stroke:#181818;stroke-width:1.0;" x1="666.5" x2="666.5" y1="111.043" y2="131.043"/><polygon fill="#181818" points="662.5,121.043,666.5,131.043,670.5,121.043,666.5,125.043" style="stroke:#181818;stroke-width:1.0;"/><line style="stroke:#181818;stroke-width:1.0;" x1="666.5" x2="666.5" y1="497.3516" y2="517.3516"/><polygon fill="#181818" points="662.5,507.3516,666.5,517.3516,670.5,507.3516,666.5,511.3516" style="stroke:#181818;stroke-width:1.0;"/><!--SRC=[ZP8zJyCm48Rt-nM769g2YiBGfQ6WgZ1KuaC2L5ZTv99OTUp8TbJAhoTE8fgWkiA39UkUz_mCx-Yir2mh65Q6rgGjZvbOfQWaZ8vCFd8ko3Tyst4Rvxxfafac2JcnX3IygeB9TxNGRCFZbzBoWdzJ0YIJ3W1ZcRO0Cqsc4XRd60AlR-s2prL1ceahGJApUJ2E063No0LyCi5R3CU0zPcPVR5HucyipfbUs82xdCDCgnwqz5sRZPrnW2jid-xm58DEvmQdOxGvIGpsP0v8ysl7NCxnElgTa73xf3hEJeQiJ7ZQjrZtB7hhfr4V-lIgXdx1S6ZebGjFs3rwxCA1tjAlTyhltuAd3EzzXaF5f-DOlNl8NVIuyvBBxMmb16LCB7HMTqpQXw-Owb8hUN3QSY6WasiB1wxkJMsRcjjAIsm_ZLpzLVa3]--></g></svg>